<svg width="20" height="20" viewBox="0 0 20 20" fill="none" xmlns="http://www.w3.org/2000/svg">
<g clip-path="url(#clip0_1279_6644)">
<path d="M15.8324 7.25879L11.3883 3.80213C10.9982 3.49872 10.5182 3.33398 10.0241 3.33398C9.52996 3.33398 9.04993 3.49872 8.65992 3.80213L4.21492 7.25879C3.94779 7.46653 3.73167 7.73256 3.58305 8.03658C3.43444 8.3406 3.35726 8.67456 3.35742 9.01296V15.013C3.35742 15.455 3.53302 15.8789 3.84558 16.1915C4.15814 16.504 4.58206 16.6796 5.02409 16.6796H15.0241C15.4661 16.6796 15.89 16.504 16.2026 16.1915C16.5152 15.8789 16.6908 15.455 16.6908 15.013V9.01296C16.6908 8.32713 16.3741 7.67963 15.8324 7.25879Z" stroke="#6B7384" stroke-width="1.5" stroke-linecap="round" stroke-linejoin="round"/>
</g>
<defs>
<clipPath id="clip0_1279_6644">
<rect width="20" height="20" fill="white"/>
</clipPath>
</defs>
</svg>
