<svg width="36" height="36" viewBox="0 0 36 36" fill="none" xmlns="http://www.w3.org/2000/svg">
<path d="M16.7941 3.53711H19.2048C19.4191 3.53711 19.5262 3.64425 19.5262 3.85854V32.1443C19.5262 32.3585 19.4191 32.4657 19.2048 32.4657H16.7941C16.5798 32.4657 16.4727 32.3585 16.4727 32.1443V3.85854C16.4727 3.64425 16.5798 3.53711 16.7941 3.53711Z" fill="black" fill-opacity="0.65"/>
<path d="M4.50112 16.4746H31.5011C31.7154 16.4746 31.8225 16.5818 31.8225 16.796V19.2068C31.8225 19.421 31.7154 19.5282 31.5011 19.5282H4.50112C4.28683 19.5282 4.17969 19.421 4.17969 19.2068V16.796C4.17969 16.5818 4.28683 16.4746 4.50112 16.4746Z" fill="black" fill-opacity="0.65"/>
</svg>
