<svg width="20" height="20" viewBox="0 0 20 20" fill="none" xmlns="http://www.w3.org/2000/svg">
<g clip-path="url(#clip0_1279_6542)">
<path d="M10.0007 12.5013C10.9211 12.5013 11.6673 11.7551 11.6673 10.8346C11.6673 9.91416 10.9211 9.16797 10.0007 9.16797C9.08018 9.16797 8.33398 9.91416 8.33398 10.8346C8.33398 11.7551 9.08018 12.5013 10.0007 12.5013Z" stroke="#6B7384" stroke-width="1.5" stroke-linecap="round" stroke-linejoin="round"/>
<path d="M11.209 9.6263L12.9173 7.91797" stroke="#6B7384" stroke-width="1.5" stroke-linecap="round" stroke-linejoin="round"/>
<path d="M5.33333 16.6662C4.11512 15.698 3.22826 14.3747 2.79565 12.8799C2.36304 11.3851 2.4061 9.7928 2.91887 8.32356C3.43164 6.85433 4.38873 5.58098 5.65749 4.67997C6.92625 3.77897 8.44386 3.29492 10 3.29492C11.5561 3.29492 13.0737 3.77897 14.3425 4.67997C15.6113 5.58098 16.5684 6.85433 17.0811 8.32356C17.5939 9.7928 17.637 11.3851 17.2044 12.8799C16.7717 14.3747 15.8849 15.698 14.6667 16.6662H5.33333Z" stroke="#6B7384" stroke-width="1.5" stroke-linecap="round" stroke-linejoin="round"/>
</g>
<defs>
<clipPath id="clip0_1279_6542">
<rect width="20" height="20" fill="white"/>
</clipPath>
</defs>
</svg>
