<svg width="22" height="18" viewBox="0 0 22 18" fill="none" xmlns="http://www.w3.org/2000/svg">
<path d="M6.68713 16.9549C6.68783 17.1593 6.61793 17.3558 6.49283 17.5008C6.36773 17.6458 6.19755 17.7276 6.01991 17.7283L2.00067 17.7425C1.76128 17.7433 1.53964 17.5971 1.41919 17.359C1.29875 17.1209 1.29774 16.8269 1.41654 16.588C1.53534 16.349 1.75598 16.2012 1.99536 16.2004L3.3351 16.1957L3.31783 11.1839L4.65758 11.1792L4.67485 16.1909L6.0146 16.1862C6.19223 16.1856 6.36297 16.2662 6.48907 16.4103C6.61517 16.5544 6.68642 16.7504 6.68713 16.9549ZM20.0819 16.1365L18.7422 16.1412L18.7249 11.1294L17.3852 11.1342L17.4024 16.1459L16.0627 16.1507C15.8233 16.1515 15.6027 16.2993 15.4839 16.5382C15.3651 16.7772 15.3661 17.0712 15.4865 17.3093C15.607 17.5474 15.8286 17.6936 16.068 17.6927L20.0872 17.6785C20.3266 17.6777 20.5473 17.5299 20.6661 17.291C20.7849 17.052 20.7839 16.758 20.6634 16.5199C20.543 16.2818 20.3213 16.1356 20.0819 16.1365ZM21.0455 4.17032L21.0589 8.04857C21.0598 8.45439 20.9209 8.84385 20.6726 9.13165C20.4243 9.41944 20.087 9.58207 19.7344 9.58385L2.29779 9.6455C1.85266 9.64879 1.43611 9.39313 1.19015 8.96578C1.04215 8.71657 0.962935 8.42152 0.962791 8.11962L0.949425 4.24137C0.948475 3.83555 1.08739 3.44609 1.33568 3.15829C1.58397 2.87049 1.92132 2.70787 2.27391 2.70609L3.28874 2.7025L3.28476 1.54594C3.28381 1.2704 3.41063 1.01541 3.61739 0.876993C3.82416 0.738575 4.07955 0.737672 4.28727 0.874625C4.49498 1.01158 4.62356 1.26567 4.62451 1.54121L4.62849 2.69777L17.3561 2.65277L17.3521 1.49621C17.3511 1.22066 17.478 0.965674 17.6847 0.827256C17.8915 0.688837 18.1469 0.687934 18.3546 0.824887C18.5623 0.96184 18.6909 1.21593 18.6918 1.49147L18.6958 2.64803L19.7107 2.64444C20.0676 2.64283 20.41 2.80719 20.6601 3.10028C20.6723 3.11486 20.6837 3.12945 20.6937 3.14456L20.6937 3.14439C20.9205 3.42223 21.0465 3.78924 21.0457 4.17027L21.0455 4.17032ZM16.0405 8.05701L19.2731 4.17659L18.1256 4.18064C18.0944 4.18712 18.0629 4.19119 18.0312 4.19251C17.9998 4.19159 17.9687 4.18808 17.9377 4.182L15.4592 4.19076L12.2256 8.07326L16.0405 8.05701ZM6.55057 8.09711L9.78313 4.21651L5.96754 4.23223L2.73529 8.11336L6.55057 8.09711Z" fill="white"/>
</svg>
