<svg width="21" height="21" viewBox="0 0 21 21" fill="none" xmlns="http://www.w3.org/2000/svg">
<path fill-rule="evenodd" clip-rule="evenodd" d="M16.2206 8.25915C15.6949 7.87178 15.1009 7.72415 14.8444 7.72412L13.8499 7.72416L13.8498 12.2776H14.8445C15.1009 12.2776 15.6949 12.1299 16.2206 11.7425C16.7231 11.3723 17.1212 10.8168 17.1212 10.0009C17.1212 9.18486 16.7231 8.62942 16.2206 8.25915ZM16.866 7.38332C17.5815 7.91054 18.2091 8.76545 18.2091 10.0008C18.2091 11.2363 17.5815 12.0912 16.866 12.6184C16.1737 13.1285 15.3573 13.3655 14.8445 13.3655L13.3059 13.3655C13.0054 13.3655 12.7619 13.122 12.7619 12.8216L12.7619 7.1802C12.7619 7.03591 12.8192 6.89755 12.9213 6.79554C13.0233 6.69353 13.1616 6.63621 13.3059 6.63624L14.8445 6.63624C14.8445 6.63624 14.8445 6.63625 14.8445 6.63624C15.3573 6.63619 16.1737 6.87319 16.866 7.38332Z" fill="#6B7384"/>
<path fill-rule="evenodd" clip-rule="evenodd" d="M20.7733 10.0006C20.7733 10.301 20.5298 10.5446 20.2294 10.5446L17.6651 10.5446C17.3647 10.5446 17.1211 10.3011 17.1211 10.0007C17.1211 9.70027 17.3647 9.45666 17.6651 9.45666L20.2294 9.45667C20.5298 9.45667 20.7733 9.70017 20.7733 10.0006Z" fill="#6B7384"/>
<path fill-rule="evenodd" clip-rule="evenodd" d="M9.07483 6.79553C9.17684 6.89754 9.23416 7.03589 9.23414 7.18019L9.23411 12.8215C9.23411 13.122 8.99061 13.3655 8.69018 13.3655L7.15168 13.3655C6.63882 13.3655 5.82242 13.1285 5.13013 12.6184C4.4146 12.0912 3.78699 11.2363 3.78701 10.0008M3.78701 10.0008C3.78697 8.76545 4.41462 7.91054 5.13013 7.38332C5.82244 6.87319 6.63879 6.63624 7.15161 6.63621L8.69017 6.63622C8.83446 6.6362 8.97282 6.69352 9.07483 6.79553M8.14621 7.72415L7.15166 7.72413C7.15166 7.72412 7.15166 7.72413 7.15166 7.72413C6.89515 7.72415 6.3012 7.87178 5.77549 8.25915C5.27299 8.62942 4.87493 9.18486 4.8749 10.0009C4.87491 10.8168 5.27296 11.3723 5.77544 11.7426C6.30117 12.13 6.89515 12.2775 7.15162 12.2776H8.14625L8.14621 7.72415Z" fill="#6B7384"/>
<path fill-rule="evenodd" clip-rule="evenodd" d="M11.2864 11.795C11.2864 12.0954 11.0429 12.3389 10.7425 12.3389H8.69109C8.39067 12.3389 8.14716 12.0954 8.14716 11.795C8.14716 11.4945 8.39067 11.251 8.69109 11.251H10.7425C11.0429 11.251 11.2864 11.4945 11.2864 11.795Z" fill="#6B7384"/>
<path fill-rule="evenodd" clip-rule="evenodd" d="M4.87472 10.0004C4.87471 10.3009 4.63141 10.5446 4.33098 10.5446L1.76673 10.5446C1.4663 10.5446 1.22276 10.301 1.22276 10.0006C1.22277 9.70017 1.46627 9.45667 1.7667 9.45667L4.33095 9.45666C4.63138 9.45666 4.87472 9.70001 4.87472 10.0004Z" fill="#6B7384"/>
<path fill-rule="evenodd" clip-rule="evenodd" d="M11.2864 8.20512C11.2864 8.50556 11.0429 8.74906 10.7425 8.74906L8.69111 8.74908C8.39069 8.74908 8.14714 8.50554 8.14715 8.20512C8.14715 7.9047 8.39066 7.66119 8.69108 7.66119L10.7425 7.66117C11.0429 7.66117 11.2864 7.9047 11.2864 8.20512Z" fill="#6B7384"/>
</svg>
