<svg width="20" height="21" viewBox="0 0 20 21" fill="none" xmlns="http://www.w3.org/2000/svg">
<path fill-rule="evenodd" clip-rule="evenodd" d="M15.2226 8.25915C14.6968 7.87178 14.1029 7.72415 13.8464 7.72412L12.8518 7.72416L12.8518 12.2776H13.8464C14.1029 12.2776 14.6968 12.1299 15.2225 11.7425C15.725 11.3723 16.1231 10.8168 16.1231 10.0009C16.1231 9.18486 15.7251 8.62942 15.2226 8.25915ZM15.8679 7.38332C16.5834 7.91054 17.2111 8.76545 17.211 10.0008C17.211 11.2363 16.5834 12.0912 15.8679 12.6184C15.1756 13.1285 14.3592 13.3655 13.8464 13.3655L12.3078 13.3655C12.0074 13.3655 11.7639 13.122 11.7639 12.8216L11.7639 7.1802C11.7639 7.03591 11.8212 6.89755 11.9232 6.79554C12.0252 6.69353 12.1636 6.63621 12.3079 6.63624L13.8464 6.63624C13.8464 6.63624 13.8464 6.63625 13.8464 6.63624C14.3592 6.63619 15.1756 6.87319 15.8679 7.38332Z" fill="#3D4255"/>
<path fill-rule="evenodd" clip-rule="evenodd" d="M19.7753 10.0006C19.7753 10.301 19.5317 10.5446 19.2313 10.5446L16.6671 10.5446C16.3666 10.5446 16.1231 10.3011 16.1231 10.0007C16.1231 9.70027 16.3667 9.45666 16.6671 9.45666L19.2314 9.45667C19.5318 9.45667 19.7753 9.70017 19.7753 10.0006Z" fill="#3D4255"/>
<path fill-rule="evenodd" clip-rule="evenodd" d="M8.07678 6.79553C8.17879 6.89754 8.23611 7.03589 8.23609 7.18019L8.23606 12.8215C8.23606 13.122 7.99256 13.3655 7.69213 13.3655L6.15363 13.3655C5.64078 13.3655 4.82437 13.1285 4.13208 12.6184C3.41655 12.0912 2.78894 11.2363 2.78896 10.0008M2.78896 10.0008C2.78892 8.76545 3.41657 7.91054 4.13209 7.38332C4.8244 6.87319 5.64074 6.63624 6.15356 6.63621L7.69213 6.63622C7.83642 6.6362 7.97477 6.69352 8.07678 6.79553M7.14816 7.72415L6.15361 7.72413C6.15361 7.72412 6.15361 7.72413 6.15361 7.72413C5.89711 7.72415 5.30316 7.87178 4.77744 8.25915C4.27494 8.62942 3.87689 9.18486 3.87685 10.0009C3.87687 10.8168 4.27491 11.3723 4.7774 11.7426C5.30313 12.13 5.8971 12.2775 6.15358 12.2776H7.1482L7.14816 7.72415Z" fill="#3D4255"/>
<path d="M12.0012 7L12.5 12.5L16 12C15.999 11.0028 17.4991 11.4994 15.9999 8.5C15.2845 7.06882 13.8348 6.99935 12.0012 7Z" fill="#3D4255"/>
<path d="M7.5 7L7.50195 12.5H4.50195C4.33529 11.6667 3.50195 11.1 3.50195 9.5C3.50195 7.9 5.66634 6.99935 7.5 7Z" fill="#3D4255"/>
<path fill-rule="evenodd" clip-rule="evenodd" d="M10.2884 11.795C10.2884 12.0954 10.0449 12.3389 9.74445 12.3389H7.69305C7.39262 12.3389 7.14912 12.0954 7.14912 11.795C7.14912 11.4945 7.39262 11.251 7.69305 11.251H9.74445C10.0449 11.251 10.2884 11.4945 10.2884 11.795Z" fill="#3D4255"/>
<path fill-rule="evenodd" clip-rule="evenodd" d="M3.87667 10.0004C3.87667 10.3009 3.63336 10.5446 3.33294 10.5446L0.768679 10.5446C0.468256 10.5446 0.224713 10.301 0.224718 10.0006C0.224723 9.70017 0.468225 9.45667 0.768649 9.45667L3.33291 9.45666C3.63333 9.45666 3.87668 9.70001 3.87667 10.0004Z" fill="#3D4255"/>
<path fill-rule="evenodd" clip-rule="evenodd" d="M10.2884 8.20512C10.2884 8.50556 10.0449 8.74906 9.74445 8.74906L7.69306 8.74908C7.39264 8.74908 7.1491 8.50554 7.1491 8.20512C7.14911 7.9047 7.39261 7.66119 7.69303 7.66119L9.74445 7.66117C10.0449 7.66117 10.2884 7.9047 10.2884 8.20512Z" fill="#3D4255"/>
</svg>
