<svg width="20" height="20" viewBox="0 0 20 20" fill="none" xmlns="http://www.w3.org/2000/svg">
<g clip-path="url(#clip0_1279_6549)">
<path d="M10 17.5C14.1421 17.5 17.5 14.1421 17.5 10C17.5 5.85786 14.1421 2.5 10 2.5C5.85786 2.5 2.5 5.85786 2.5 10C2.5 14.1421 5.85786 17.5 10 17.5Z" stroke="#6B7384" stroke-width="1.5" stroke-linecap="round" stroke-linejoin="round"/>
<path d="M10 14.168V14.1767" stroke="#6B7384" stroke-width="1.5" stroke-linecap="round" stroke-linejoin="round"/>
<path d="M10.0007 11.249C9.98531 10.9785 10.0583 10.7103 10.2086 10.4848C10.3589 10.2594 10.5784 10.0889 10.834 9.999C11.1472 9.87922 11.4284 9.68836 11.6553 9.44146C11.8822 9.19456 12.0487 8.89835 12.1418 8.57616C12.2348 8.25396 12.2517 7.91458 12.1913 7.58472C12.1308 7.25486 11.9946 6.94354 11.7934 6.67526C11.5922 6.40698 11.3315 6.18907 11.0317 6.03868C10.732 5.88829 10.4014 5.80953 10.0661 5.8086C9.73074 5.80767 9.39975 5.8846 9.09919 6.03332C8.79862 6.18204 8.53668 6.39851 8.33398 6.66567" stroke="#6B7384" stroke-width="1.5" stroke-linecap="round" stroke-linejoin="round"/>
</g>
<defs>
<clipPath id="clip0_1279_6549">
<rect width="20" height="20" fill="white"/>
</clipPath>
</defs>
</svg>
